<svg width="106" height="36" viewBox="0 0 106 36" fill="none" xmlns="http://www.w3.org/2000/svg">
<path d="M62.752 21V11.592L66.448 16.488H67.168L70.832 11.592V21H72V9.8H70.848L66.8 15.224L62.752 9.8H61.584V21H62.752ZM78.6185 21.192C79.7865 21.192 80.6825 20.952 81.3225 20.456V19.432C80.5705 19.912 79.7385 20.152 78.8425 20.152C76.9865 20.152 75.6745 19.08 75.5465 17.416H81.8985V17.096C81.8985 15.352 80.8745 13.08 78.2825 13.08C77.1305 13.08 76.1865 13.464 75.4505 14.248C74.7305 15.016 74.3625 15.976 74.3625 17.144C74.3625 18.328 74.7625 19.304 75.5785 20.056C76.3945 20.808 77.4185 21.192 78.6185 21.192ZM75.5625 16.472C75.6105 15.832 75.8825 15.288 76.3465 14.824C76.8265 14.36 77.4505 14.12 78.2345 14.12C79.0505 14.12 79.6585 14.36 80.0585 14.856C80.4745 15.336 80.6985 15.88 80.7305 16.472H75.5625ZM85.2151 21V17.56H89.9671V21H91.1191V13.272H89.9671V16.52H85.2151V13.272H84.0631V21H85.2151ZM100.692 21.192C101.812 21.192 102.74 20.808 103.46 20.024C104.196 19.24 104.564 18.28 104.564 17.144C104.564 15.992 104.196 15.032 103.46 14.248C102.74 13.464 101.812 13.08 100.692 13.08C99.6844 13.08 98.8204 13.416 98.1164 14.072C97.4124 14.728 97.0124 15.576 96.9164 16.584H94.9964V13.272H93.8444V21H94.9964V17.624H96.9004C96.9964 18.664 97.3964 19.512 98.1004 20.184C98.8044 20.856 99.6684 21.192 100.692 21.192ZM100.692 20.152C99.9084 20.152 99.2524 19.864 98.7404 19.288C98.2284 18.712 97.9724 17.992 97.9724 17.144C97.9724 16.28 98.2284 15.56 98.7404 14.984C99.2524 14.408 99.9084 14.12 100.692 14.12C101.492 14.12 102.148 14.408 102.66 14.984C103.172 15.56 103.428 16.28 103.428 17.144C103.428 17.992 103.172 18.712 102.66 19.288C102.148 19.864 101.492 20.152 100.692 20.152Z" fill="black"/>
<rect width="40" height="3" rx="1.5" fill="#2A94E2"/>
<path d="M0 14.5C0 13.6716 0.671573 13 1.5 13H28.5C29.3284 13 30 13.6716 30 14.5C30 15.3284 29.3284 16 28.5 16H1.5C0.671573 16 0 15.3284 0 14.5Z" fill="#2A94E2"/>
<path d="M0 27.5C0 26.6716 0.671573 26 1.5 26H18.5C19.3284 26 20 26.6716 20 27.5C20 28.3284 19.3284 29 18.5 29H1.5C0.671573 29 0 28.3284 0 27.5Z" fill="#2A94E2"/>
</svg>
